<svg width="28" height="28" viewBox="0 0 28 28" fill="none" xmlns="http://www.w3.org/2000/svg">
<rect width="28" height="28" rx="14" fill="#04B5D6"/>
<path d="M14.1334 13.0583C14.05 13.05 13.95 13.05 13.8584 13.0583C11.875 12.9916 10.3 11.3666 10.3 9.36663C10.3 7.32496 11.95 5.66663 14 5.66663C16.0417 5.66663 17.7 7.32496 17.7 9.36663C17.6917 11.3666 16.1167 12.9916 14.1334 13.0583Z" stroke="white" stroke-width="1.25" stroke-linecap="round" stroke-linejoin="round"/>
<path d="M9.9666 16.1334C7.94993 17.4834 7.94993 19.6834 9.9666 21.025C12.2583 22.5584 16.0166 22.5584 18.3083 21.025C20.3249 19.675 20.3249 17.475 18.3083 16.1334C16.0249 14.6084 12.2666 14.6084 9.9666 16.1334Z" stroke="white" stroke-width="1.25" stroke-linecap="round" stroke-linejoin="round"/>
</svg>
