<svg width="28" height="28" viewBox="0 0 28 28" fill="none" xmlns="http://www.w3.org/2000/svg">
<rect width="28" height="28" rx="14" fill="#5A6D9D"/>
<path d="M6.5083 13.3502V17.0919C6.5083 20.8336 8.0083 22.3336 11.75 22.3336H16.2416C19.9833 22.3336 21.4833 20.8336 21.4833 17.0919V13.3502" stroke="white" stroke-width="1.25" stroke-linecap="round" stroke-linejoin="round"/>
<path d="M14.0005 14C15.5255 14 16.6505 12.7583 16.5005 11.2333L15.9505 5.66663H12.0588L11.5005 11.2333C11.3505 12.7583 12.4755 14 14.0005 14Z" stroke="white" stroke-width="1.25" stroke-linecap="round" stroke-linejoin="round"/>
<path d="M19.2584 14C20.9417 14 22.1751 12.6333 22.0084 10.9583L21.7751 8.66663C21.4751 6.49996 20.6417 5.66663 18.4584 5.66663H15.9167L16.5001 11.5083C16.6417 12.8833 17.8834 14 19.2584 14Z" stroke="white" stroke-width="1.25" stroke-linecap="round" stroke-linejoin="round"/>
<path d="M8.70039 14C10.0754 14 11.3171 12.8833 11.4504 11.5083L11.6337 9.66663L12.0337 5.66663H9.49206C7.30872 5.66663 6.47539 6.49996 6.17539 8.66663L5.95039 10.9583C5.78372 12.6333 7.01706 14 8.70039 14Z" stroke="white" stroke-width="1.25" stroke-linecap="round" stroke-linejoin="round"/>
<path d="M14.0001 18.1666C12.6084 18.1666 11.9167 18.8583 11.9167 20.25V22.3333H16.0834V20.25C16.0834 18.8583 15.3917 18.1666 14.0001 18.1666Z" stroke="white" stroke-width="1.25" stroke-linecap="round" stroke-linejoin="round"/>
</svg>
