<svg width="28" height="28" viewBox="0 0 28 28" fill="none" xmlns="http://www.w3.org/2000/svg">
<rect width="28" height="28" rx="14" fill="#8E3AFA"/>
<path d="M22.3334 7.89186V17.9502C22.3334 18.7502 21.6834 19.5002 20.8834 19.6002L20.6084 19.6336C18.7917 19.8752 15.9917 20.8002 14.3917 21.6835C14.1751 21.8085 13.8168 21.8085 13.5918 21.6835L13.5584 21.6669C11.9584 20.7919 9.16677 19.8752 7.35844 19.6336L7.11674 19.6002C6.31674 19.5002 5.66675 18.7502 5.66675 17.9502V7.88352C5.66675 6.89186 6.47506 6.14186 7.46673 6.2252C9.21673 6.36686 11.8667 7.25022 13.3501 8.17522L13.5584 8.30019C13.8001 8.45019 14.2001 8.45019 14.4418 8.30019L14.5834 8.20854C15.1084 7.88354 15.7751 7.55853 16.5001 7.26686V10.6669L18.1667 9.55853L19.8334 10.6669V6.3169C20.0584 6.27524 20.2751 6.25021 20.4751 6.23354H20.5251C21.5168 6.15021 22.3334 6.89186 22.3334 7.89186Z" stroke="white" stroke-width="1.25" stroke-linecap="round" stroke-linejoin="round"/>
<path d="M14 8.5752V21.0752" stroke="white" stroke-width="1.25" stroke-linecap="round" stroke-linejoin="round"/>
<path d="M19.8333 6.31689V10.6669L18.1667 9.55852L16.5 10.6669V7.26686C17.5917 6.83352 18.8083 6.48356 19.8333 6.31689Z" stroke="white" stroke-width="1.25" stroke-linecap="round" stroke-linejoin="round"/>
</svg>
