<svg width="28" height="28" viewBox="0 0 28 28" fill="none" xmlns="http://www.w3.org/2000/svg">
<rect width="28" height="28" rx="14" fill="#E83EF7"/>
<path d="M11.6329 13.0583C11.5496 13.05 11.4496 13.05 11.3579 13.0583C9.37456 12.9916 7.79956 11.3666 7.79956 9.36663C7.79956 7.32496 9.44956 5.66663 11.4996 5.66663C13.5412 5.66663 15.1996 7.32496 15.1996 9.36663C15.1912 11.3666 13.6162 12.9916 11.6329 13.0583Z" stroke="white" stroke-width="1.25" stroke-linecap="round" stroke-linejoin="round"/>
<path d="M17.6752 7.33337C19.2919 7.33337 20.5919 8.64171 20.5919 10.25C20.5919 11.825 19.3419 13.1084 17.7836 13.1667C17.7169 13.1584 17.6419 13.1584 17.5669 13.1667" stroke="white" stroke-width="1.25" stroke-linecap="round" stroke-linejoin="round"/>
<path d="M7.46636 16.1334C5.44969 17.4834 5.44969 19.6834 7.46636 21.025C9.75802 22.5584 13.5164 22.5584 15.808 21.025C17.8247 19.675 17.8247 17.475 15.808 16.1334C13.5247 14.6084 9.76636 14.6084 7.46636 16.1334Z" stroke="white" stroke-width="1.25" stroke-linecap="round" stroke-linejoin="round"/>
<path d="M19.2834 20.6666C19.8834 20.5416 20.4501 20.3 20.9168 19.9416C22.2168 18.9666 22.2168 17.3583 20.9168 16.3833C20.4584 16.0333 19.9001 15.8 19.3084 15.6666" stroke="white" stroke-width="1.25" stroke-linecap="round" stroke-linejoin="round"/>
</svg>
