<svg width="20" height="20" viewBox="0 0 20 20" fill="none" xmlns="http://www.w3.org/2000/svg">
<path d="M1.66663 1.66669V15.8334C1.66663 17.2167 2.78329 18.3334 4.16663 18.3334H18.3333" stroke="#FF5160" stroke-width="1.25" stroke-miterlimit="10" stroke-linecap="round" stroke-linejoin="round"/>
<path d="M14.7689 15C14.4082 15 14.2179 14.5727 14.4592 14.3046L15.3 13.3704C15.4426 13.2119 15.4426 12.9714 15.3 12.8129L12.5103 9.71323C12.1792 9.34542 11.6025 9.34542 11.2715 9.71324L9.5107 11.6696C9.17952 12.0376 8.60244 12.0374 8.27151 11.6692L3.80609 6.70095C3.53731 6.4019 3.53746 5.94824 3.80644 5.64937V5.64937C4.11878 5.30232 4.66296 5.30232 4.9753 5.64937L8.27146 9.31176C8.6025 9.67958 9.17925 9.67958 9.51029 9.31176L11.272 7.35436C11.6028 6.98673 12.1792 6.98651 12.5103 7.35387L16.3061 11.5647C16.4717 11.7484 16.7599 11.7483 16.9253 11.5645L17.607 10.8071C17.8625 10.5232 18.3334 10.7039 18.3334 11.0858V14.5833C18.3334 14.8135 18.1468 15 17.9167 15H14.7689Z" fill="#FF5160"/>
</svg>
