<svg width="20" height="20" viewBox="0 0 20 20" fill="none" xmlns="http://www.w3.org/2000/svg">
<path d="M1.66663 1.66669V15.8334C1.66663 17.2167 2.78329 18.3334 4.16663 18.3334H18.3333" stroke="#00B69B" stroke-width="1.25" stroke-miterlimit="10" stroke-linecap="round" stroke-linejoin="round"/>
<path d="M14.7689 5C14.4082 5 14.2179 5.42727 14.4592 5.6954L15.3 6.6296C15.4426 6.78806 15.4426 7.02861 15.3 7.18707L12.5103 10.2868C12.1792 10.6546 11.6025 10.6546 11.2715 10.2868L9.5107 8.33037C9.17952 7.96238 8.60244 7.96258 8.27151 8.33078L3.80609 13.2991C3.53731 13.5981 3.53746 14.0518 3.80644 14.3506V14.3506C4.11878 14.6977 4.66296 14.6977 4.9753 14.3506L8.27146 10.6882C8.6025 10.3204 9.17925 10.3204 9.51029 10.6882L11.272 12.6456C11.6028 13.0133 12.1792 13.0135 12.5103 12.6461L16.3061 8.43527C16.4717 8.25159 16.7599 8.2517 16.9253 8.43551L17.607 9.19292C17.8625 9.47676 18.3334 9.29605 18.3334 8.91418V5.41667C18.3334 5.18655 18.1468 5 17.9167 5H14.7689Z" fill="#00B69B"/>
</svg>
