<svg width="24" height="24" viewBox="0 0 24 24" fill="none" xmlns="http://www.w3.org/2000/svg">
<path fill-rule="evenodd" clip-rule="evenodd" d="M13.2615 3.04712C13.5832 3.16679 13.7826 3.48959 13.7456 3.83084L13.1856 9.00007H18.25C18.5266 9.00007 18.7807 9.1523 18.9113 9.39617C19.0418 9.64004 19.0275 9.93595 18.874 10.1661L11.874 20.6661C11.6843 20.9507 11.326 21.0709 11.003 20.9582C10.68 20.8456 10.4742 20.5287 10.5026 20.1878L10.9349 15.0001H5.75C5.47121 15.0001 5.21543 14.8454 5.08588 14.5986C4.95634 14.3517 4.97442 14.0533 5.13283 13.8239L12.3828 3.32392C12.5779 3.04146 12.9398 2.92745 13.2615 3.04712ZM7.17927 13.5001H11.75C11.9597 13.5001 12.1599 13.5879 12.3019 13.7422C12.4439 13.8966 12.5148 14.1033 12.4974 14.3124L12.2389 17.4147L16.8486 10.5001H12.35C12.137 10.5001 11.9341 10.4095 11.7918 10.251C11.6496 10.0925 11.5814 9.88102 11.6044 9.66929L11.9356 6.61157L7.17927 13.5001Z" fill="white"/>
</svg>
