<svg width="127" height="100" viewBox="0 0 127 100" fill="none" xmlns="http://www.w3.org/2000/svg">
<g clip-path="url(#clip0_447_2427)">
<path d="M8.38586 97.6653V98.3587C8.38586 98.9814 8.27257 99.3989 8.03184 99.6394C7.79818 99.88 7.38752 100 6.7786 100H3.16757C2.55157 100 2.13382 99.88 1.89309 99.6324C1.65943 99.3918 1.53906 98.9743 1.53906 98.3587V97.7502H2.85603V98.7833H7.1043V97.2833H3.39414C2.77814 97.2833 2.36748 97.163 2.12674 96.9224C1.89309 96.6747 1.7798 96.2573 1.7798 95.6417V95.104C1.7798 94.4954 1.89309 94.078 2.12674 93.8374C2.3604 93.5898 2.77814 93.4695 3.39414 93.4695H6.68655C7.28839 93.4695 7.70614 93.5827 7.94687 93.8162C8.19469 94.0568 8.31506 94.4388 8.31506 94.9978V95.6134H7.07598V94.6653H3.06136V96.0309H6.7786C7.38044 96.0309 7.7911 96.1511 8.03184 96.3846C8.27257 96.6252 8.38586 97.0427 8.38586 97.6653Z" fill="white"/>
<path d="M13.3986 93.4695L9.83008 100H11.2603L12.0463 98.479H16.0113L16.8043 100H18.3408L14.7085 93.4695H13.3915H13.3986ZM15.4024 97.3328H12.6623L14.0288 94.7289L15.4024 97.3328Z" fill="white"/>
<path d="M21.2579 93.4695H19.863V100H25.931V98.7833H21.2579V93.4695Z" fill="white"/>
<path d="M33.5074 93.4695H29.2308C28.6077 93.4695 28.19 93.5898 27.9492 93.8374C27.7156 94.0851 27.6023 94.4954 27.6023 95.111V98.3658C27.6023 98.9814 27.7156 99.3989 27.9563 99.6394C28.1971 99.88 28.6148 100 29.2308 100H33.5074C34.1163 100 34.527 99.8871 34.7677 99.6465C35.0084 99.4059 35.1217 98.9885 35.1217 98.3658V95.111C35.1217 94.4954 35.0084 94.0709 34.7677 93.8303C34.527 93.5898 34.1163 93.4695 33.5074 93.4695ZM33.7481 94.6653V98.7904H28.983V94.6653H33.7481Z" fill="white"/>
<path d="M43.7242 93.4695H39.4476C38.8245 93.4695 38.4068 93.5898 38.166 93.8374C37.9324 94.0851 37.8191 94.4954 37.8191 95.111V98.3658C37.8191 98.9814 37.9324 99.3989 38.1731 99.6394C38.4138 99.88 38.8316 100 39.4476 100H43.7242C44.3331 100 44.7438 99.8871 44.9845 99.6465C45.2252 99.4059 45.3385 98.9885 45.3385 98.3658V95.111C45.3385 94.4954 45.2252 94.0709 44.9845 93.8303C44.7438 93.5898 44.3331 93.4695 43.7242 93.4695ZM43.972 94.6653V98.7904H39.2069V94.6653H43.972Z" fill="white"/>
<path d="M54.0052 97.0357L54.0335 97.9485V97.9839C53.9273 97.8565 53.814 97.7433 53.7007 97.6372L49.0701 93.505L49.0206 93.4625H48.1284V99.9933H49.4312V96.1725L49.4171 95.4295V95.3942C49.4737 95.4508 49.5303 95.5074 49.5941 95.564L54.5008 100H55.3222V93.4696H54.0194V97.0428L54.0052 97.0357Z" fill="white"/>
<path d="M66.6579 97.3612L63.7479 93.4625H63.3868L63.3372 93.3139L63.3514 93.4625H62.6433V99.9933H63.8611V95.5286C63.8611 95.5286 63.8824 95.5569 63.8895 95.571L66.4314 99.031H66.8774L69.2989 95.5073V100H70.5947V93.4696H69.3768L66.665 97.3682L66.6579 97.3612Z" fill="white"/>
<path d="M75.6997 93.4695L72.1311 100H73.5614L74.3473 98.479H78.3123L79.1054 100H80.6418L77.0095 93.4695H75.6926H75.6997ZM77.7034 97.3328H74.9633L76.3298 94.7289L77.7034 97.3328Z" fill="white"/>
<path d="M88.0479 97.0357L88.0762 97.9485V97.9839C87.97 97.8565 87.8567 97.7433 87.7435 97.6372L83.1128 93.505L83.0633 93.4625H82.1711V99.9933H83.4739V96.1725L83.4598 95.4295V95.3942C83.5164 95.4508 83.5731 95.5074 83.6368 95.564L88.5435 100H89.3649V93.4696H88.0621V97.0428L88.0479 97.0357Z" fill="white"/>
<path d="M94.4416 93.4695L90.873 100H92.3033L93.0892 98.479H97.0543L97.8473 100H99.3838L95.7515 93.4695H94.4345H94.4416ZM96.4454 97.3328H93.7052L95.0718 94.7289L96.4454 97.3328Z" fill="white"/>
<path d="M106.457 93.4696H102.457C101.826 93.4696 101.402 93.5899 101.175 93.8375C100.941 94.0781 100.828 94.4956 100.828 95.1041V98.3589C100.828 98.9815 100.941 99.399 101.182 99.6396C101.423 99.8801 101.841 100 102.457 100H106.457C107.059 100 107.491 99.8801 107.732 99.6396C107.972 99.399 108.086 98.9815 108.086 98.3589V96.1866H104.198V97.3258H106.705V98.7834H102.216V94.6654H106.705V95.6064L108.086 95.3305V95.0262C108.086 94.4531 107.965 94.0427 107.717 93.8092C107.477 93.5757 107.066 93.4625 106.457 93.4625V93.4696Z" fill="white"/>
<path d="M112.086 97.1842H115.095V96.0167H112.086V94.6511H117.007V93.4695H110.698V100H117.049V98.7974H112.086V97.1842Z" fill="white"/>
<path d="M123.889 97.5877H124.314C124.831 97.5877 125.199 97.4815 125.44 97.2551C125.681 97.0287 125.801 96.682 125.801 96.215V94.8353C125.801 94.3683 125.681 94.0145 125.44 93.7881C125.199 93.5687 124.831 93.4555 124.314 93.4555H119.152V99.9863H120.54V97.5806H122.105L124.626 99.9863H126.707L123.882 97.5806L123.889 97.5877ZM120.54 94.623H123.91C124.172 94.623 124.272 94.6796 124.307 94.715C124.349 94.7574 124.399 94.8565 124.399 95.0829V95.9815C124.399 96.2221 124.342 96.3141 124.314 96.3494C124.286 96.3777 124.194 96.4414 123.91 96.4414H120.54V94.6301V94.623Z" fill="white"/>
<path d="M111.633 86.0042H125.086L80.4082 0.0352173H66.9553L111.633 86.0042Z" fill="white"/>
<path d="M81.1869 86.0045H0.285645L5.98541 75.0372H62.0343L55.9592 63.3483L55.4353 62.3011H12.6056L15.1758 57.3481L18.4895 50.98L19.9693 48.1286L23.0351 42.2275L24.3733 39.659L30.0731 28.6918L34.0098 21.1138L40.7363 8.17242L46.7547 19.7552L51.3994 28.6918L55.9592 37.4656L57.0992 39.659H43.6463L40.0282 32.6966L36.4101 39.659L30.5263 50.98H62.9831L66.2967 57.3481L68.8669 62.3011L75.4871 75.0372L81.1869 86.0045Z" fill="white"/>
<path d="M45.0056 0.0353782H58.4585L103.136 86.0044H89.6833L45.0056 0.0353782L44.9844 0L45.0056 0.0353782Z" fill="white"/>
</g>
<defs>
<clipPath id="clip0_447_2427">
<rect width="126.429" height="100" fill="white" transform="translate(0.285645)"/>
</clipPath>
</defs>
</svg>
