<svg width="28" height="28" viewBox="0 0 28 28" fill="none" xmlns="http://www.w3.org/2000/svg">
<rect width="28" height="28" rx="14" fill="#FF5160"/>
<path d="M23.1667 19C23.1667 19.625 22.9917 20.2166 22.6833 20.7166C22.5083 21.0166 22.2833 21.2833 22.025 21.5C21.4417 22.025 20.675 22.3333 19.8333 22.3333C18.8167 22.3333 17.9083 21.875 17.3083 21.1583C17.2917 21.1333 17.2667 21.1166 17.25 21.0916C17.15 20.975 17.0583 20.85 16.9833 20.7166C16.675 20.2166 16.5 19.625 16.5 19C16.5 17.95 16.9833 17.0083 17.75 16.4C18.325 15.9416 19.05 15.6666 19.8333 15.6666C20.6667 15.6666 21.4167 15.9666 22 16.4749C22.1 16.5499 22.1917 16.6417 22.275 16.7333C22.825 17.3333 23.1667 18.125 23.1667 19Z" stroke="white" stroke-width="1.25" stroke-miterlimit="10" stroke-linecap="round" stroke-linejoin="round"/>
<path d="M6.6416 10.1998L13.9999 14.4582L21.3083 10.2248" stroke="white" stroke-width="1.25" stroke-linecap="round" stroke-linejoin="round"/>
<path d="M14 22.0083V14.45" stroke="white" stroke-width="1.25" stroke-linecap="round" stroke-linejoin="round"/>
<path d="M22.0084 11.6416V16.3583C22.0084 16.4 22.0084 16.4333 22 16.475C21.4167 15.9666 20.6667 15.6666 19.8334 15.6666C19.05 15.6666 18.325 15.9416 17.75 16.4C16.9834 17.0083 16.5 17.95 16.5 19C16.5 19.625 16.675 20.2166 16.9834 20.7166C17.0584 20.85 17.15 20.975 17.25 21.0916L15.725 21.9333C14.775 22.4667 13.225 22.4667 12.275 21.9333L7.82503 19.4666C6.8167 18.9083 5.9917 17.5083 5.9917 16.3583V11.6416C5.9917 10.4916 6.8167 9.09164 7.82503 8.53331L12.275 6.06663C13.225 5.53329 14.775 5.53329 15.725 6.06663L20.175 8.53331C21.1834 9.09164 22.0084 10.4916 22.0084 11.6416Z" stroke="white" stroke-width="1.25" stroke-linecap="round" stroke-linejoin="round"/>
<path d="M19 19.6481C19 20.0074 19.2778 20.2962 19.6185 20.2962H20.3148C20.6111 20.2962 20.8519 20.0444 20.8519 19.7296C20.8519 19.3925 20.7037 19.2703 20.4852 19.1925L19.3704 18.8037C19.1519 18.7259 19.0037 18.6074 19.0037 18.2666C19.0037 17.9555 19.2444 17.7 19.5407 17.7H20.237C20.5778 17.7 20.8556 17.9888 20.8556 18.3481" stroke="white" stroke-width="0.555556" stroke-linecap="round" stroke-linejoin="round"/>
<path d="M19.926 17.3334V20.6667" stroke="white" stroke-width="0.555556" stroke-linecap="round" stroke-linejoin="round"/>
</svg>
