<svg width="24" height="24" viewBox="0 0 24 24" fill="none" xmlns="http://www.w3.org/2000/svg">
<path d="M18.375 8.25H18V7.5C18 4.1925 15.3075 1.5 12 1.5C8.6925 1.5 6 4.1925 6 7.5V8.25H5.625C3.55875 8.25 1.875 9.93375 1.875 12V18.75C1.875 20.8162 3.55875 22.5 5.625 22.5H18.375C20.4412 22.5 22.125 20.8162 22.125 18.75V12C22.125 9.93375 20.4412 8.25 18.375 8.25ZM7.5 7.5C7.5 5.0175 9.5175 3 12 3C14.4825 3 16.5 5.0175 16.5 7.5V8.25H7.5V7.5ZM20.625 18.75C20.625 19.9912 19.6162 21 18.375 21H5.625C4.38375 21 3.375 19.9912 3.375 18.75V12C3.375 10.7587 4.38375 9.75 5.625 9.75H18.375C19.6162 9.75 20.625 10.7587 20.625 12V18.75Z" fill="white"/>
<path d="M12 16.5C12.6213 16.5 13.125 15.9963 13.125 15.375C13.125 14.7537 12.6213 14.25 12 14.25C11.3787 14.25 10.875 14.7537 10.875 15.375C10.875 15.9963 11.3787 16.5 12 16.5Z" fill="white"/>
<path d="M16.5 16.5C17.1213 16.5 17.625 15.9963 17.625 15.375C17.625 14.7537 17.1213 14.25 16.5 14.25C15.8787 14.25 15.375 14.7537 15.375 15.375C15.375 15.9963 15.8787 16.5 16.5 16.5Z" fill="white"/>
<path d="M7.5 16.5C8.12132 16.5 8.625 15.9963 8.625 15.375C8.625 14.7537 8.12132 14.25 7.5 14.25C6.87868 14.25 6.375 14.7537 6.375 15.375C6.375 15.9963 6.87868 16.5 7.5 16.5Z" fill="white"/>
</svg>
