<svg width="24" height="24" viewBox="0 0 24 24" fill="none" xmlns="http://www.w3.org/2000/svg">
<path fill-rule="evenodd" clip-rule="evenodd" d="M4.14481 2.24637C5.09095 1.23504 6.5785 1 8.47 1H16.03C17.9212 1 19.4094 1.23491 20.3544 2.24685C21.2828 3.24101 21.4949 4.78799 21.49 6.79109C21.49 6.79083 21.49 6.79135 21.49 6.79109V18.06C21.49 18.7849 21.3923 19.4269 21.1806 19.9486C20.9678 20.4728 20.6162 20.9264 20.0897 21.1536C19.5578 21.3832 18.9882 21.3212 18.4686 21.0971C17.9563 20.8762 17.4502 20.4832 16.9627 19.9628L16.9613 19.9613C16.6923 19.6726 16.3863 19.5693 16.1183 19.5839C15.85 19.5985 15.5564 19.7348 15.32 20.05L14.3105 21.3993L14.308 21.4027C13.7827 22.0966 13.0433 22.5025 12.245 22.5025C11.4467 22.5025 10.7073 22.0966 10.182 21.4027L10.1795 21.3993L9.17 20.05C8.9336 19.7348 8.64003 19.5985 8.37172 19.5839C8.10374 19.5693 7.79771 19.6726 7.52871 19.9613L7.52742 19.9627C7.04203 20.481 6.53697 20.8728 6.02494 21.093C5.50572 21.3164 4.93637 21.3779 4.40457 21.1488C3.87795 20.922 3.52503 20.469 3.31116 19.9438C3.09834 19.4211 3 18.7776 3 18.05V6.79C3 4.78644 3.21532 3.2399 4.14481 2.24637ZM5.24019 3.27113C4.75468 3.7901 4.5 4.76356 4.5 6.79V18.05C4.5 18.6574 4.58416 19.0926 4.7004 19.3781C4.81559 19.661 4.9383 19.7455 4.99793 19.7712C5.05238 19.7946 5.1799 19.8236 5.43225 19.7151C5.69178 19.6035 6.03297 19.364 6.43258 18.9373L6.98 19.45L6.43129 18.9387C6.98229 18.3474 7.71126 18.0457 8.45328 18.0861C9.19497 18.1265 9.8864 18.5052 10.37 19.15L11.378 20.4973C11.3784 20.4978 11.3787 20.4983 11.3791 20.4988C11.6635 20.8737 11.9836 21.0025 12.245 21.0025C12.5064 21.0025 12.8265 20.8737 13.1109 20.4988C13.1113 20.4983 13.1117 20.4978 13.112 20.4973L14.1195 19.1507C14.6031 18.5059 15.295 18.1265 16.0367 18.0861C16.7783 18.0457 17.5069 18.3471 18.0578 18.9377C18.46 19.367 18.8025 19.6076 19.0626 19.7197C19.3155 19.8288 19.4422 19.7993 19.4953 19.7764C19.5538 19.7511 19.6759 19.6672 19.7907 19.3845C19.9064 19.0994 19.99 18.6651 19.99 18.06V6.79L19.99 6.78814C19.995 4.76161 19.7421 3.78886 19.2581 3.27065C18.7906 2.77009 17.9188 2.5 16.03 2.5H8.47C6.5815 2.5 5.70905 2.76996 5.24019 3.27113Z" fill="white"/>
<path fill-rule="evenodd" clip-rule="evenodd" d="M7.5 6.75C7.5 6.33579 7.83579 6 8.25 6H16.25C16.6642 6 17 6.33579 17 6.75C17 7.16421 16.6642 7.5 16.25 7.5H8.25C7.83579 7.5 7.5 7.16421 7.5 6.75Z" fill="white"/>
<path fill-rule="evenodd" clip-rule="evenodd" d="M8.5 10.75C8.5 10.3358 8.83579 10 9.25 10H15.25C15.6642 10 16 10.3358 16 10.75C16 11.1642 15.6642 11.5 15.25 11.5H9.25C8.83579 11.5 8.5 11.1642 8.5 10.75Z" fill="white"/>
</svg>
