<svg width="20" height="20" viewBox="0 0 20 20" fill="none" xmlns="http://www.w3.org/2000/svg">
<path d="M2.62366 9.36005V13.0441C2.62366 16.7283 4.10058 18.2052 7.78468 18.2052H12.2072C15.8913 18.2052 17.3683 16.7283 17.3683 13.0441V9.36005" stroke="white" stroke-width="1.6" stroke-linecap="round" stroke-linejoin="round"/>
<path d="M10.0003 9.99999C11.5018 9.99999 12.6095 8.77742 12.4618 7.27589L11.9203 1.79486H8.08847L7.53873 7.27589C7.39103 8.77742 8.49873 9.99999 10.0003 9.99999Z" stroke="white" stroke-width="1.6" stroke-linecap="round" stroke-linejoin="round"/>
<path d="M15.1773 9.99999C16.8348 9.99999 18.0491 8.65435 17.885 7.00512L17.6553 4.74871C17.3599 2.61537 16.5394 1.79486 14.3896 1.79486H11.8871L12.4614 7.54666C12.6009 8.9005 13.8235 9.99999 15.1773 9.99999Z" stroke="white" stroke-width="1.6" stroke-linecap="round" stroke-linejoin="round"/>
<path d="M4.78187 9.99999C6.13572 9.99999 7.35828 8.9005 7.48957 7.54666L7.67008 5.73332L8.06393 1.79486H5.56136C3.41162 1.79486 2.5911 2.61537 2.29572 4.74871L2.07418 7.00512C1.91008 8.65435 3.12444 9.99999 4.78187 9.99999Z" stroke="white" stroke-width="1.6" stroke-linecap="round" stroke-linejoin="round"/>
<path d="M10 14.1025C8.62976 14.1025 7.94873 14.7836 7.94873 16.1538V18.2051H12.0513V16.1538C12.0513 14.7836 11.3703 14.1025 10 14.1025Z" stroke="white" stroke-width="1.6" stroke-linecap="round" stroke-linejoin="round"/>
</svg>
