<svg width="28" height="28" viewBox="0 0 28 28" fill="none" xmlns="http://www.w3.org/2000/svg">
<rect width="28" height="28" rx="14" fill="#5B7DFB"/>
<path d="M5.66675 11.5V9.41663C5.66675 7.34163 7.34175 5.66663 9.41675 5.66663H11.5001" stroke="white" stroke-width="1.25" stroke-linecap="round" stroke-linejoin="round"/>
<path d="M16.5 5.66663H18.5833C20.6583 5.66663 22.3333 7.34163 22.3333 9.41663V11.5" stroke="white" stroke-width="1.25" stroke-linecap="round" stroke-linejoin="round"/>
<path d="M22.3333 17.3334V18.5834C22.3333 20.6584 20.6583 22.3334 18.5833 22.3334H17.3333" stroke="white" stroke-width="1.25" stroke-linecap="round" stroke-linejoin="round"/>
<path d="M11.5001 22.3333H9.41675C7.34175 22.3333 5.66675 20.6583 5.66675 18.5833V16.5" stroke="white" stroke-width="1.25" stroke-linecap="round" stroke-linejoin="round"/>
<path d="M18.1666 11.9166V16.0833C18.1666 17.75 17.3333 18.5833 15.6666 18.5833H12.3333C10.6666 18.5833 9.83325 17.75 9.83325 16.0833V11.9166C9.83325 10.25 10.6666 9.41663 12.3333 9.41663H15.6666C17.3333 9.41663 18.1666 10.25 18.1666 11.9166Z" stroke="white" stroke-width="1.25" stroke-linecap="round" stroke-linejoin="round"/>
<path d="M19.8334 14H8.16675" stroke="white" stroke-width="1.25" stroke-linecap="round" stroke-linejoin="round"/>
</svg>
