<svg width="24" height="24" viewBox="0 0 24 24" fill="none" xmlns="http://www.w3.org/2000/svg">
<path fill-rule="evenodd" clip-rule="evenodd" d="M6.75 7.75C6.50575 7.75 6.27397 7.76744 6.05404 7.80128L6.03339 7.80416C4.92606 7.94312 4.05559 8.41721 3.45955 9.11651C2.86197 9.81761 2.5 10.7929 2.5 12V17C2.5 18.3296 2.93991 19.3793 3.65533 20.0947C4.37075 20.8101 5.42044 21.25 6.75 21.25H16.75C18.0796 21.25 19.1293 20.8101 19.8447 20.0947C20.5601 19.3793 21 18.3296 21 17V12C21 10.7847 20.6317 9.80336 20.0247 9.09999C19.4191 8.39822 18.5351 7.92541 17.4134 7.79497C17.4011 7.79354 17.3889 7.79181 17.3767 7.78978C17.1968 7.7598 16.9946 7.75 16.75 7.75H6.75ZM5.83633 6.31713C6.13313 6.27204 6.43789 6.25 6.75 6.25H16.75C17.0197 6.25 17.3108 6.25975 17.6045 6.30711C19.055 6.47974 20.2895 7.1109 21.1603 8.12C22.0333 9.13163 22.5 10.4753 22.5 12V17C22.5 18.6704 21.9399 20.1207 20.9053 21.1553C19.8707 22.1899 18.4204 22.75 16.75 22.75H6.75C5.07956 22.75 3.62925 22.1899 2.59467 21.1553C1.56009 20.1207 1 18.6704 1 17V12C1 10.4871 1.45803 9.15239 2.31795 8.14349C3.17737 7.13519 4.39812 6.4999 5.83633 6.31713Z" fill="white"/>
<path fill-rule="evenodd" clip-rule="evenodd" d="M10.3011 3.55098L7.61035 6.25001H16.5732C16.4406 5.91449 16.2353 5.60015 15.9553 5.32451L15.948 5.31738L14.2007 3.54997C13.1234 2.48301 11.378 2.48335 10.3011 3.55098ZM5.99108 5.74968L9.24302 2.48773C10.9055 0.837419 13.5974 0.837427 15.2598 2.48773L15.2648 2.49268L17.0113 4.25925C17.7851 5.02278 18.2017 5.99997 18.2505 7.0139C18.2615 7.24042 18.1693 7.45972 17.9998 7.61043C17.8304 7.76114 17.6018 7.82708 17.3781 7.7898C17.1982 7.75982 16.996 7.75001 16.7514 7.75001H6.75141C6.50716 7.75001 6.27538 7.76746 6.05545 7.80129C5.77831 7.84393 5.50052 7.7284 5.33534 7.50181C5.17017 7.27522 5.14519 6.97541 5.27059 6.7246C5.45465 6.35648 5.70863 6.0322 5.99108 5.74968C5.99121 5.74955 5.99095 5.74981 5.99108 5.74968Z" fill="white"/>
<path fill-rule="evenodd" clip-rule="evenodd" d="M16 14.5C16 12.9858 17.2358 11.75 18.75 11.75H21.75C22.1642 11.75 22.5 12.0858 22.5 12.5C22.5 12.9142 22.1642 13.25 21.75 13.25H18.75C18.0642 13.25 17.5 13.8142 17.5 14.5C17.5 15.1858 18.0642 15.75 18.75 15.75H21.75C22.1642 15.75 22.5 16.0858 22.5 16.5C22.5 16.9142 22.1642 17.25 21.75 17.25H18.75C17.2358 17.25 16 16.0142 16 14.5Z" fill="white"/>
</svg>
