<svg width="24" height="24" viewBox="0 0 24 24" fill="none" xmlns="http://www.w3.org/2000/svg">
<path d="M12.81 2.4558L12.63 2.8458L9.72996 9.5758H7.87996C7.19996 9.5758 6.55996 9.7058 5.95996 9.9658L7.70996 5.7858L7.74996 5.6958L7.80996 5.5358C7.83996 5.4658 7.85996 5.4058 7.88996 5.3558C9.19996 2.3258 9.82996 1.3158 12.81 2.4558Z" fill="white"/>
<path d="M19.0505 9.77588C18.6005 9.64588 18.1305 9.57588 17.6405 9.57588H10.7305L12.1805 6.21088L13.6305 2.84588L13.6605 2.77588C13.8005 2.82588 13.9505 2.89588 14.1005 2.94588L16.3105 3.87588C17.5405 4.38588 18.4005 4.91588 18.9305 5.55588C19.0205 5.67588 19.1005 5.78588 19.1805 5.91588C19.2705 6.05588 19.3405 6.19588 19.3805 6.34588C19.4205 6.43588 19.4505 6.51588 19.4705 6.60588C19.7305 7.45588 19.5705 8.48588 19.0505 9.77588Z" fill="white"/>
<path d="M7.71 5.78589L5.96 9.96589C4.22 10.7159 3 12.4459 3 14.4559V11.5259C3 8.68589 5.02 6.31589 7.71 5.78589Z" fill="#E7E7E7"/>
<path d="M22.5198 11.5258V14.4558C22.5198 12.2458 21.0498 10.3858 19.0498 9.77583C19.5698 8.48583 19.7298 7.45583 19.4698 6.60583C19.4498 6.51583 19.4198 6.43583 19.3798 6.34583C21.2498 7.31583 22.5198 9.28583 22.5198 11.5258Z" fill="#E7E7E7"/>
<path d="M19.05 9.77581C18.6 9.64581 18.13 9.57581 17.64 9.57581H7.88C7.2 9.57581 6.56 9.70581 5.96 9.96581C4.22 10.7158 3 12.4458 3 14.4558V16.4058C3 16.6458 3.02 16.8758 3.05 17.1158C3.27 20.2958 4.97 21.9958 8.15 22.2058C8.38 22.2358 8.61 22.2558 8.86 22.2558H16.66C20.36 22.2558 22.31 20.4958 22.5 16.9958C22.51 16.8058 22.52 16.6058 22.52 16.4058V14.4558C22.52 12.2458 21.05 10.3858 19.05 9.77581ZM11.81 14.8358L14.21 15.6758C15.08 15.9958 15.5 16.6058 15.5 17.5458C15.5 18.6358 14.64 19.5158 13.59 19.5158H13.51V19.5558C13.51 19.9658 13.17 20.3058 12.76 20.3058C12.35 20.3058 12.01 19.9658 12.01 19.5558V19.5058C10.9 19.4658 10.01 18.5258 10.01 17.3658C10.01 16.9558 10.35 16.6158 10.76 16.6158C11.17 16.6158 11.51 16.9558 11.51 17.3658C11.51 17.7158 11.78 18.0158 12.09 18.0158H13.59C13.81 18.0158 14 17.8058 14 17.5458C14 17.1958 13.94 17.1758 13.71 17.0858L11.32 16.2458C10.44 15.9358 10.02 15.3258 10.02 14.3758C10.02 13.2858 10.88 12.4058 11.93 12.4058H12.02V12.2558C12.02 11.8458 12.36 11.5058 12.77 11.5058C13.18 11.5058 13.52 11.8458 13.52 12.2558V12.4158C14.63 12.4758 15.52 13.4158 15.52 14.5558C15.52 14.9658 15.18 15.3058 14.77 15.3058C14.36 15.3058 14.02 14.9658 14.02 14.5558C14.02 14.2058 13.75 13.9058 13.42 13.9058H11.93C11.71 13.9058 11.52 14.1158 11.52 14.3758C11.52 14.7258 11.57 14.7458 11.82 14.8258L11.81 14.8358Z" fill="white"/>
</svg>
